Coordinates
version=1
nRows=21
nColumns=12
inDegrees=yes

Units are S.I. units (second, meters, Newtons, ...)
Angles are in degrees

endheader
time	SC_y	SC_z	SC_x	AC_y	AC_z	AC_x	GH_y	GH_z	GH_yy	EL_x	PS_y
       0.0              -47.75           35.8          66.86          31.52         -14.02         -5.644         -64.25         -3.503         -42.51          29.16          99.84
   0.02071              -47.75           35.8          66.87          31.53         -14.02         -5.643         -64.27         -3.503         -42.51          29.16          99.83
   0.04142              -47.75           35.8          66.87          31.53         -14.01         -5.641         -64.29         -3.503         -42.51          29.17          99.81
   0.06213              -47.75           35.8          66.87          31.54         -14.01          -5.64          -64.3         -3.504         -42.51          29.18           99.8
   0.08284              -47.75           35.8          66.87          31.54         -14.01         -5.639         -64.32         -3.504         -42.51          29.19          99.78
    0.1036              -47.75           35.8          66.87          31.55         -14.01         -5.638         -64.34         -3.504         -42.51          29.21          99.77
    0.1243              -47.76           35.8          66.87          31.56         -14.01         -5.636         -64.37         -3.504         -42.51          29.22          99.75
     0.145              -47.76           35.8          66.87          31.57          -14.0         -5.635         -64.39         -3.505         -42.51          29.23          99.73
    0.1657              -47.76          35.79          66.88          31.57          -14.0         -5.633         -64.41         -3.505         -42.51          29.25          99.71
    0.1864              -47.76          35.79          66.88          31.58          -14.0         -5.631         -64.44         -3.505         -42.51          29.26          99.69
    0.2071              -47.76          35.79          66.88          31.59          -14.0         -5.629         -64.47         -3.506         -42.51          29.28          99.67
    0.2278              -47.76          35.79          66.88           31.6         -13.99         -5.627          -64.5         -3.506         -42.51          29.29          99.65
    0.2485              -47.76          35.79          66.88          31.61         -13.99         -5.625         -64.53         -3.506         -42.51          29.31          99.62
    0.2692              -47.76          35.78          66.89          31.63         -13.99         -5.623         -64.57         -3.507         -42.51          29.33          99.59
      0.29              -47.76          35.78          66.89          31.64         -13.98          -5.62         -64.61         -3.507         -42.51          29.35          99.56
    0.3107              -47.76          35.78          66.89          31.65         -13.98         -5.618         -64.65         -3.508         -42.51          29.38          99.53
    0.3314              -47.77          35.78           66.9          31.67         -13.98         -5.615          -64.7         -3.508         -42.51           29.4          99.49
    0.3521              -47.77          35.77           66.9          31.69         -13.97         -5.611         -64.75         -3.509         -42.51          29.43          99.46
    0.3728              -47.77          35.77           66.9           31.7         -13.96         -5.608          -64.8          -3.51         -42.51          29.46          99.41
    0.3935              -47.77          35.77          66.91          31.72         -13.96         -5.604         -64.86          -3.51         -42.51          29.49          99.37
    0.4142              -47.77          35.76          66.91          31.75         -13.95           -5.6         -64.93         -3.511         -42.51          29.53          99.32
